<?xml version="1.0" encoding="UTF-8"?>
<svg width="803px" height="191px" viewBox="0 0 803 191" version="1.1" xmlns="http://www.w3.org/2000/svg" xmlns:xlink="http://www.w3.org/1999/xlink">
    <!-- Generator: Sketch 55.2 (78181) - https://sketchapp.com -->
    <title>1</title>
    <desc>Created with Sketch.</desc>
    <g id="Page-1" stroke="none" stroke-width="1" fill="none" fill-rule="evenodd">
        <g id="Desktop-HD" transform="translate(-303.000000, -131.000000)" fill="#F7F2E9">
            <g id="Group" transform="translate(283.000000, 95.000000)">
                <path id='satu' d="M672.316447,88.1316464 C669.45229,86.0022675 665.649721,83.9128977 661.133337,83.2749731 C651.44457,81.9035463 643.834985,81.8413098 642.122717,81.8502007 C640.559439,82.4214433 638.993937,82.9926859 637.432882,83.559483 L672.316447,88.1316464 Z M651.740325,94.9932257 C658.798426,94.3553011 664.673506,93.3884119 669.149863,92.4682001 L629.193984,87.2314393 C632.184893,90.2921437 639.558763,96.0890335 651.740325,94.9932257 Z M604.112596,106.644796 C597.25463,104.448735 589.691744,106.75371 584.430412,109.156485 C589.269236,109.196495 596.273968,109.494341 603.163066,110.634603 C608.493333,111.517029 613.937011,111.852662 618.284392,111.959353 C614.288359,110.254516 609.373928,108.327406 604.112596,106.644796 Z M598.973569,121.650472 C606.35411,122.33952 614.432901,119.434407 620.17011,116.711558 C615.420235,116.660435 608.880261,116.35592 602.393657,115.280117 C594.781849,114.02205 586.82981,113.846454 582.26228,113.873127 C585.760199,117.049413 591.455157,120.950311 598.973569,121.650472 Z M643.39024,66.2443867 C642.838756,67.2890716 642.285049,68.3382019 641.689091,69.3828868 C641.093133,70.4320172 640.541649,71.4055746 640.021298,72.3302318 L664.277683,48.5025255 C650.130349,53.5347948 646.823671,59.7384448 643.39024,66.2443867 Z M663.48159,59.3494664 C665.01596,57.415688 666.512526,54.5127977 667.777825,51.6699211 L642.180534,76.8157086 C642.836533,76.5756534 643.488084,76.3378209 644.141859,76.0977656 C648.595979,72.8014514 659.258737,64.6684684 663.48159,59.3494664 Z M796.244607,88.3050197 C791.930582,101.294676 781.118834,109.76996 770.089161,108.927544 C759.50868,108.120692 753.666956,99.0808332 753.544651,90.9834139 C753.42457,83.2905322 758.247829,77.7937115 765.830729,76.9801909 C768.688215,76.6734537 771.316657,78.2893812 772.348465,81.0033391 C773.340246,83.6150514 772.526363,86.3379003 770.271506,87.9449368 L768.786058,86.1089587 L767.427363,84.1840712 C768.156744,83.668397 768.101151,83.0860407 767.945491,82.6770577 C767.872108,82.4859026 767.454048,81.5456862 766.33329,81.6612683 C758.719258,82.4792344 758.223368,88.9473898 758.2545,90.9100637 C758.347896,97.0092453 762.933216,103.657442 770.447181,104.23313 C780.874224,105.039982 788.804025,95.7645143 791.772697,86.8224562 C794.788068,77.7448114 793.963066,65.481989 782.610953,58.2936679 C755.697217,41.249745 704.249129,59.1538658 653.559332,77.6736839 C656.043232,77.8892891 658.813992,78.1893581 661.796007,78.6116776 C673.9242,80.3298508 681.478191,90.3165938 681.796184,90.7411359 C682.243153,91.3412741 682.376576,92.1192309 682.158651,92.8349512 C681.940726,93.5506715 681.391466,94.121914 680.684322,94.3686375 C680.255143,94.5175607 669.934838,98.0761575 652.165057,99.683194 C650.982035,99.7898852 649.839041,99.8410081 648.731626,99.8410081 C633.917174,99.8410081 625.918438,90.8678318 624.17059,88.6562116 C615.384655,92.3192769 606.689893,96.535803 598.226398,101.074625 C600.652481,101.079071 603.116368,101.381363 605.549122,102.159319 C618.924824,106.435859 629.812179,112.092717 630.268042,112.332772 C631.004095,112.717305 631.482196,113.457475 631.528894,114.286555 C631.575592,115.115635 631.181993,115.906928 630.494862,116.371479 C629.847759,116.807135 615.360194,126.462691 601.230649,126.462691 C600.327817,126.462691 599.431656,126.422682 598.537719,126.338218 C586.671926,125.233519 578.873324,117.607319 575.853507,114.077618 C544.441176,133.68213 518.706014,155.18708 507.489548,164.564794 L503.057665,168.272314 C490.649283,178.66804 474.745206,192 461.156026,192 C456.94874,192.00222 452.961602,190.721925 449.368063,187.679003 C443.266164,182.508924 440.406454,175.927409 441.10248,168.650178 C442.005312,159.201337 448.838817,150.588244 453.430808,148.005427 C457.337892,145.802698 465.983732,144.82914 470.649106,148.312164 C472.261306,149.514663 474.783009,152.33309 473.555514,157.674319 C471.29621,167.512139 461.660812,169.643741 456.866462,169.39924 C455.565583,169.332558 454.564907,168.223414 454.633843,166.925337 C454.702778,165.629483 455.821312,164.689267 457.102177,164.695935 C457.473539,164.720385 467.031106,165.044904 468.963523,156.622966 C469.61285,153.797871 468.62774,152.679836 467.827199,152.084143 C464.969714,149.948096 458.469767,150.572684 455.743481,152.108594 C452.583569,153.886781 446.559499,161.083993 445.792315,169.099171 C445.243055,174.856051 447.471226,179.897212 452.414566,184.084842 C464.571667,194.382768 485.063287,177.205481 500.031176,164.662594 L504.467506,160.952851 C515.955266,151.346196 542.537668,129.13664 574.961793,109.092026 C574.981807,109.076467 574.990702,109.056462 575.010715,109.043126 C575.215298,108.894203 576.925342,107.689481 579.607153,106.260263 C595.442295,96.7447399 612.518274,87.9049276 629.825521,81.3545311 C629.867772,81.1011394 629.921141,80.8499705 630.050117,80.6099153 C630.072355,80.5676833 632.447292,76.1177702 637.595214,67.0556845 C638.162264,66.0532316 638.693734,65.0485559 639.225204,64.0461029 C643.645968,55.6641738 648.217946,46.9977347 672.945761,41.0674809 C673.77521,40.8629894 674.644686,41.1319402 675.222855,41.7565284 C675.801023,42.3788938 675.998935,43.2657646 675.736535,44.0770624 C675.574203,44.5838458 671.698252,56.5732719 667.170749,62.2768068 C665.11158,64.8707372 661.771546,67.9803418 658.295865,70.9365777 C707.973868,52.9035384 757.485091,36.8087229 785.132656,54.3149743 C798.777429,62.9569634 799.818132,77.5380971 796.244607,88.3050197 Z M486.00525,217.749773 C488.847561,214.838455 489.575443,211.143751 489.173545,209.561269 C489.111028,209.327825 488.825234,208.513015 487.588281,207.832884 C486.038741,206.979915 482.205081,205.956352 473.984035,208.67463 C462.704099,212.405248 454.268708,213.603894 440.782799,198.764474 C444.154276,207.159487 450.917326,217.918123 463.941052,221.026971 C476.576277,224.041544 482.912868,220.910249 486.00525,217.749773 Z M489.861237,203.662313 C491.852865,204.75995 493.272904,206.481601 493.757414,208.382825 C494.583538,211.621863 493.34212,217.024749 489.37896,221.083087 C486.496458,224.03032 481.546415,227 473.307507,227 C470.286574,227 466.819088,226.602696 462.846996,225.653207 C437.518494,219.606104 433.195859,189.958689 433.021703,188.699438 C432.876573,187.626492 433.470489,186.589461 434.468536,186.178689 C435.457651,185.767917 436.611991,186.082169 437.259494,186.948606 C454.545571,210.093252 462.078925,207.603929 472.505944,204.156138 C480.075022,201.651102 485.915939,201.484997 489.861237,203.662313 Z M494.29768,104.825091 C490.860231,117.157868 490.676362,125.209386 490.496978,132.99652 C490.411771,136.731234 490.292929,140.379301 489.848953,144.278422 C492.450023,138.470842 496.107218,130.052739 498.665684,123.114303 C498.990818,115.718192 495.450223,109.446272 495.414346,109.381842 C494.766321,108.253208 495.158724,106.815754 496.295571,106.171455 C497.441387,105.524934 498.880945,105.913735 499.535698,107.037926 C499.627632,107.202333 500.827264,109.310747 501.872176,112.558904 C503.988909,104.462951 508.563206,90.0439779 516.626524,77.8156226 C508.215649,83.2255145 497.824821,92.1723872 494.29768,104.825091 Z M518.122139,118.908584 C522.665043,103.467619 523.304099,90.6927206 523.770498,81.3637119 C523.878128,79.2019768 523.97679,77.2690791 524.111328,75.5428014 C518.420365,82.6523104 514.213807,91.248151 511.222576,98.9886289 C513.198044,97.1668172 515.086062,95.3361186 516.09734,94.3252353 C517.023411,93.4032209 518.53248,93.3987775 519.456309,94.311905 C520.389106,95.2272543 520.393591,96.7180294 519.472005,97.6422656 C518.669261,98.4420854 511.866116,105.193897 508.20668,107.66223 C507.130375,111.128115 506.352296,114.105222 505.838809,116.24474 C505.493494,117.686637 504.977765,119.388476 504.352162,121.2525 L509.661934,116.59355 C510.644062,115.733744 512.144162,115.820391 513.011933,116.793505 C513.884188,117.764398 513.792254,119.252951 512.810126,120.117201 L501.872176,129.719481 C501.621038,129.939432 501.329539,130.083844 501.029071,130.181599 C498.39885,136.769004 495.360531,143.631901 493.317794,148.135331 C501.701761,143.22977 513.713773,133.889653 518.122139,118.908584 Z M485.37556,157 C484.78135,157 484.198352,156.78005 483.747649,156.362366 C483.099624,155.758058 482.846244,154.84493 483.092897,153.996232 C485.451799,145.855845 485.597548,139.557264 485.750025,132.889878 C485.924924,125.191613 486.124489,116.469134 489.718899,103.57204 C496.591555,78.9087096 525.544159,67.6223641 526.770698,67.1558026 C527.660892,66.8203227 528.669928,67.0358297 529.331407,67.7134547 C529.992886,68.3910798 530.183482,69.3930762 529.813502,70.2639911 C528.981608,72.2257712 528.777558,76.360395 528.512967,81.5969926 C528.062264,90.6194038 527.382846,104.254109 522.682981,120.226065 C514.980674,146.393501 487.346544,156.446791 486.17382,156.862253 C485.913713,156.955566 485.644637,157 485.37556,157 Z M558.699718,180.105037 C572.283036,171.107508 576.359361,164.505339 579.954684,158.681718 C581.184897,156.691114 582.38851,154.758016 583.871415,152.83819 C573.061062,155.476846 564.604737,160.068505 553.665822,166.208411 C556.636064,166.246012 559.437845,166.290247 559.437845,166.290247 L559.364697,170.977013 C559.362481,170.977013 550.338707,170.835459 547.559092,170.835459 C547.05149,170.835459 546.605954,170.640822 546.222482,170.366561 C546.113869,170.426279 546.014122,170.481574 545.905509,170.543504 C541.279467,173.098112 536.624609,175.522225 532.311108,177.698618 C536.068243,177.937491 539.038485,178.379847 539.273445,178.415236 C540.554639,178.609872 541.434629,179.806446 541.239568,181.084856 C541.06224,182.24383 540.060338,183.07546 538.921006,183.07546 C538.803526,183.07546 538.686046,183.066613 538.56635,183.048919 C538.459953,183.033436 528.310147,181.513942 522.225583,182.648586 C520.048883,183.688124 518.16034,184.572836 516.64862,185.273971 C526.813943,187.658272 544.342807,189.613487 558.699718,180.105037 Z M524.437748,173.087053 C522.535907,174.860902 519.392769,177.625629 516.424743,180.206779 C520.071049,178.499283 525.186959,176.048629 530.894701,173.160042 C531.100845,172.890204 531.349104,172.653544 531.670511,172.489872 C533.060318,171.768831 535.387747,167.161689 536.693324,163.308765 C537.107828,162.08565 538.437787,161.419904 539.668,161.83793 C540.898212,162.251534 541.558758,163.578603 541.142038,164.806142 C540.878262,165.589112 540.370661,167.000229 539.674649,168.588289 C540.993526,167.884942 542.310185,167.170536 543.631278,166.44286 C545.934325,165.171086 548.117674,163.943547 550.205711,162.771302 C550.429587,162.643019 550.635731,162.530218 550.859607,162.406358 C550.98817,162.096709 551.169931,161.806965 551.43814,161.568093 C556.421054,157.091446 556.851074,153.342476 556.86659,153.18544 C556.895406,152.889061 556.988503,152.6148 557.112633,152.360445 C553.880832,153.324782 550.575883,154.589921 547.270934,156.286358 C535.565075,162.286922 530.238588,167.469127 526.348457,171.251274 C525.68126,171.899326 525.051746,172.51199 524.437748,173.087053 Z M577.381213,149.779295 C572.568977,149.637741 566.732672,149.984991 560.475213,151.462461 C561.160142,151.90703 561.607895,152.670094 561.550264,153.541536 C561.530314,153.815797 561.390669,155.145078 560.566094,157.078176 C566.191822,154.112176 571.518309,151.652675 577.381213,149.779295 Z M591.308104,146.910614 C592.141545,147.15391 592.773276,147.835139 592.950604,148.682252 C593.127932,149.531576 592.819824,150.407441 592.154845,150.962599 C588.215949,154.233824 586.240959,157.434273 583.951212,161.141219 C580.103197,167.37402 575.738713,174.440664 561.295355,184.011044 C552.08317,190.11335 541.891248,192 532.818709,192 C518.656859,192 507.223641,187.410553 506.454482,187.094268 C505.698621,186.782407 505.159988,186.101178 505.029209,185.296089 C504.900646,184.488789 505.202103,183.674853 505.822751,183.144025 C505.933581,183.05113 516.98111,173.62894 521.23033,169.665426 C521.819945,169.110269 522.42951,168.521935 523.072324,167.893789 C527.173032,163.903735 532.789893,158.440633 545.123049,152.117149 C568.022733,140.374799 590.363833,146.638565 591.308104,146.910614 Z M817.766403,75.9041687 C818.300464,74.5880427 819.140661,70.7679028 815.458096,63.7080681 C813.04253,59.071255 808.461669,56.0857864 804.464031,54.254459 C807.149979,58.891272 809.140978,64.8982059 809.898495,71.1301186 C810.325298,74.6307887 811.272754,77.0178138 812.564333,77.8457357 C812.852592,78.0324681 813.73748,78.5971649 815.92959,77.8772328 C816.704984,77.6252565 817.357477,76.9233227 817.766403,75.9041687 Z M819.652377,61.4942767 C823.866769,69.5777649 823.341646,74.7680258 822.152856,77.7017493 C821.2054,80.0437786 819.516068,81.7153711 817.395465,82.4105555 C816.193268,82.8020187 815.062578,83 814.003394,83 C812.530814,83 811.199013,82.6220356 810.021397,81.8638571 C807.406954,80.1900148 805.831585,76.867078 805.201437,71.7105639 C804.135549,62.9566389 800.336787,54.5626799 795.957037,51.3004874 C795.072149,50.6390497 794.757075,49.4489118 795.197285,48.4320077 C795.63526,47.4151035 796.698913,46.8346582 797.805023,47.0416387 C798.450813,47.1631273 813.750888,50.168844 819.652377,61.4942767 Z M734.868285,94.9608853 C735.093858,96.4955676 737.166443,107.717518 750.392576,113.933533 C748.201621,111.349967 746.271972,108.092908 745.354049,104.111567 C745.034674,102.729248 744.744334,101.424216 744.469627,100.194262 C742.968789,93.4990728 741.785093,88.2104914 739.900112,87.7732725 C739.641039,87.7136518 739.348465,87.678321 739.03579,87.678321 C738.173702,87.678321 737.168677,87.9477184 736.333389,88.7051228 C734.977722,89.9328686 734.457342,92.1542936 734.868285,94.9608853 Z M762.595816,117.521819 C763.67901,117.998785 764.239591,119.195617 763.902349,120.321786 C763.600841,121.328715 762.667284,122 761.635459,122 C761.512622,122 761.389786,121.988959 761.266949,121.969086 C740.699665,118.787104 731.670072,105.78978 730.187101,95.6299626 C729.320546,89.712051 731.663372,86.5918984 733.132942,85.2581601 C735.227861,83.361337 738.236237,82.5818508 740.981072,83.2178055 C745.762759,84.328518 746.941989,89.6038504 749.088276,99.1829177 C749.36075,100.404039 749.651091,101.702447 749.965998,103.073724 C752.221722,112.853735 762.49308,117.477656 762.595816,117.521819 Z M806.297058,108.096555 C806.540652,106.304316 806.027131,103.699266 805.32488,101.249573 C803.402467,105.592825 800.226976,111.04159 795.655761,113.583597 L794.312706,114.328862 C788.24043,117.690435 785.560903,119.277782 785.653073,121.653173 C785.683797,122.493003 786.081008,123.148206 786.833733,123.600769 C787.582069,124.05108 790.5008,125.284933 796.570882,122.139509 C804.321977,118.120482 805.656254,112.784294 806.297058,108.096555 Z M805.173457,92.0069362 C806.163192,91.9303833 807.06734,92.4932723 807.471134,93.4096555 C807.901263,94.395837 811.658306,103.197169 810.898997,108.758512 C810.078241,114.772418 807.984655,121.569865 798.666662,126.397201 C794.881091,128.358307 791.863606,129 789.537399,129 C787.149746,129 785.492872,128.326785 784.474609,127.71211 C782.365661,126.439981 781.101609,124.298751 781.007244,121.842304 C780.794374,116.391287 785.290975,113.901066 792.10281,110.131961 L793.439281,109.388948 C798.69958,106.464177 802.204252,97.1067103 803.110594,93.7496405 C803.369549,92.7814714 804.196889,92.0834891 805.173457,92.0069362 Z M779.003506,88.7472059 C779.032117,88.7251592 782.672302,86.0994061 784.043424,81.3748142 C785.256085,77.1991833 782.262946,74.1192696 782.135298,73.9913992 C781.232955,73.0808735 781.224151,71.6059543 782.124294,70.6954286 C783.028838,69.7826983 784.490194,69.765061 785.403541,70.6623587 C785.614822,70.8673923 790.524889,75.7727666 788.519927,82.6799744 C786.671223,89.0426307 781.866796,92.4422204 781.662118,92.5833188 C781.257164,92.8655156 780.792787,93 780.335013,93 C779.595532,93 778.869255,92.6494586 778.418084,91.9968785 C777.680803,90.9364358 777.944904,89.4813585 779.003506,88.7472059 Z M459.746871,105.812601 C448.229823,107.270891 440.123075,119.294621 435.119657,142.459605 C438.308132,138.889991 442.874619,135.168151 449.39049,132.158909 C465.041576,124.927022 469.090468,116.373627 469.254201,114.643975 C469.267481,111.094217 468.451877,108.63211 466.82515,107.217943 C465.644316,106.189859 463.959332,105.673611 461.799325,105.673611 C461.158493,105.673611 460.470607,105.719941 459.746871,105.812601 Z M429.979559,157.969113 C428.711339,157.759525 427.844199,156.592451 428.023453,155.334924 C433.038074,120.439633 442.923914,103.23136 459.137408,101.175191 C463.715099,100.59717 467.362911,101.450965 469.968811,103.714515 C472.666579,106.059694 474.019944,109.706524 474,114.553521 C474,117.072989 470.16599,127.724469 451.404853,136.390379 C435.305633,143.827442 432.728862,155.987956 432.704214,156.111502 C432.484629,157.223421 431.492011,158 430.378398,158 C430.246198,158 430.113999,157.991175 429.979559,157.969113 Z M439.479638,83.6973784 C440.489778,81.7654831 440.545402,78.5330598 439.606462,76.1743245 C439.128091,74.9782834 438.445023,74.151281 437.730805,73.9045141 C437.461583,73.8111429 437.20571,73.7577879 436.945388,73.7577879 C435.301129,73.7577879 433.538947,75.9208882 428.530521,84.5466121 C425.562401,89.6531295 423.793543,99.2681438 422.778953,107.30474 C427.13991,99.6260669 432.183935,93.2501453 435.666026,88.8439121 C437.448233,86.5918868 438.985693,84.6488758 439.479638,83.6973784 Z M402.329181,88.841689 C405.813496,93.245699 410.857521,99.6238438 415.218478,107.300293 C414.203888,99.2614745 412.435031,89.6509064 409.47136,84.5466121 C404.460709,75.9208882 402.698527,73.7577879 401.056493,73.7577879 C400.796171,73.7577879 400.538073,73.8111429 400.268851,73.9045141 C399.554633,74.151281 398.871565,74.9782834 398.393195,76.1743245 C397.456479,78.5330598 397.507653,81.7654831 398.517793,83.6973784 C399.013963,84.6466527 400.551423,86.5896637 402.329181,88.841689 Z M424.452137,82.1834305 C429.834358,72.9152236 433.098401,67.324065 439.26604,69.4515954 C441.310795,70.1541028 442.986203,71.92371 443.987443,74.4336178 C445.449254,78.1062198 445.31798,82.7080879 443.660372,85.8782638 C442.959503,87.2210311 441.450968,89.126249 439.363939,91.765098 C434.304339,98.1676971 425.829398,108.885381 421.421717,121.426028 C421.085745,122.381971 420.182404,123 419.198964,123 C419.134439,123 419.065465,122.984438 418.998716,122.979992 C418.934191,122.984438 418.867442,123 418.800693,123 C417.817252,123 416.916136,122.381971 416.57794,121.426028 C412.170258,108.883158 403.695317,98.165474 398.631267,91.7606517 C396.546463,89.1240258 395.040153,87.2210311 394.339285,85.8782638 C392.681676,82.7080879 392.550402,78.1062198 394.014438,74.4336178 C395.013453,71.92371 396.688861,70.1541028 398.733616,69.4515954 C404.92573,67.3218419 408.167523,72.9174468 413.54752,82.1834305 C416.112919,86.5985562 417.846177,93.6769852 419.000941,100.559779 C420.157929,93.6769852 421.888962,86.5985562 424.452137,82.1834305 Z M541.304216,110.867932 C540.283012,110.631488 539.489479,109.868903 539.239704,108.886916 C538.77331,107.067788 538.99435,105.069731 539.843143,103.406103 C540.035448,103.033331 540.610151,101.917145 541.912076,101.335621 C542.977488,100.858473 544.182156,100.890424 545.47966,101.429346 C546.03447,101.66153 546.576018,101.940576 547.084409,102.262225 C548.587481,103.203741 548.954407,104.392351 548.996404,105.2231 C549.031771,105.970774 548.835045,107.404348 547.097672,108.526924 C546.998204,108.590828 546.894315,108.656862 546.790426,108.718636 C546.693169,108.901826 546.571597,109.074367 546.427921,109.238386 C545.422189,110.365223 543.950064,111 542.462465,111 C542.073435,111 541.686615,110.957397 541.304216,110.867932 Z M563.409152,96 C561.980829,96 560.727259,95.3577029 559.9164,94.1940892 C558.770013,92.5553517 558.688461,89.9289723 559.732326,88.2154468 C560.044553,87.6985296 560.408042,87.2893951 560.836772,86.9638472 C561.901607,86.1543769 563.122556,86.028997 563.947395,86.0026012 C565.212615,85.9762054 566.26347,86.1499776 567.188502,86.5569124 C568.593525,87.1860117 569.607099,88.3496253 569.905346,89.6716136 C570.170972,90.8462254 569.872725,92.0758285 569.071186,93.1382583 C567.784996,94.8363864 565.515522,95.7954328 563.949725,95.9670053 C563.767981,95.9890018 563.586237,96 563.409152,96 Z M583.566897,81.607266 C583.085529,81.2206466 582.651228,80.7051542 582.35171,80.01557 C581.863923,78.8828431 581.883178,77.5647199 582.411613,76.099636 C582.794568,75.0437809 583.282355,74.2117579 583.900646,73.5493049 C584.805618,72.5884089 585.950205,72.0390024 587.131162,72.0005666 C588.727165,71.9756964 590.194804,72.7692834 591.546914,74.4355902 C592.10958,75.1319572 592.866932,76.2172045 592.9846,77.6415915 C593.164311,79.7894768 591.754437,81.8989262 589.629998,82.6585993 C588.923991,82.9073018 588.213706,83 587.531232,83 C586.726812,83 585.956623,82.8733878 585.254895,82.7264272 C584.529634,82.5772057 583.937016,82.1679771 583.566897,81.607266 Z M608.843211,69.2097165 C608.085055,69.0586651 607.462753,68.7324816 606.980688,68.2377335 C606.257591,67.4868547 605.902616,66.3572528 606.023133,65.2123268 C606.121737,64.3388555 606.446035,63.6536513 606.682685,63.2136319 C607.83964,61.0616965 609.719693,59.5621281 611.849543,59.1024064 C612.156311,59.0367318 613.052513,58.8462757 614.014452,59.2512686 C614.932566,59.6431267 615.456264,60.387438 615.627178,60.6326229 C616.43354,61.7884946 616.915605,63.2420909 616.990106,64.7307136 C617.040504,65.6961292 616.898076,66.549898 616.569395,67.2701287 C616.166214,68.1611132 615.26782,69.3213632 613.291355,69.8029764 C612.745745,69.9365146 612.215474,70 611.709306,70 C610.688205,70 609.752561,69.739491 608.954963,69.2294189 C608.917712,69.2228514 608.882653,69.2162839 608.843211,69.2097165 Z M693.857021,72.66165 C694.948574,73.3162829 695.723078,74.4682518 695.935954,75.7451329 C696.148829,76.9942558 695.827251,78.3012084 695.027836,79.4300454 C694.085749,80.7578167 692.57071,81.7501754 691.164373,81.962989 C690.992261,81.988434 690.820149,82 690.650302,82 C689.606306,82 688.657425,81.5072904 687.991623,80.6005198 C686.775515,78.9442754 686.757398,76.0481609 687.506992,74.3803506 C687.733455,73.8737618 688.002946,73.4597007 688.333583,73.1219749 C689.354932,72.0740996 690.634449,72.0232095 691.051141,72.0070171 C692.117783,71.9561269 693.0644,72.1828196 693.857021,72.66165 Z M712.572547,66.4756069 C714.281815,65.5854013 716.158794,65.9698082 717.243169,67.4197643 C718.34822,68.8966964 718.136859,71.4054576 717.291414,72.9813014 C716.602193,74.267154 715.469573,75 714.17154,75 C714.141674,75 714.10951,75 714.079644,75 C712.572547,74.9595361 711.662775,73.884995 711.361815,73.5320599 C710.980446,73.0779652 710.509478,72.4620148 710.217708,71.6684729 C709.452673,69.5800865 710.815033,67.3882924 712.572547,66.4756069 Z M739.254287,68.9600274 C737.653495,68.7766235 736.511878,67.8666582 736.126424,66.4629133 C735.271264,63.3709124 739.033125,60.6057466 739.071038,60.5775306 C740.067321,59.8721311 741.198406,59.8086452 742.163094,60.410586 C743.450046,61.2100387 744.01243,62.9406187 743.999792,64.2996883 C743.993473,64.8169813 743.978729,66.382968 743.028785,67.5868498 C742.497996,68.2569792 741.545947,69 739.924092,69 C739.711355,69 739.490193,68.9882433 739.254287,68.9600274 Z M763.322404,65.8641059 C763.083707,65.8125599 762.345307,65.6555788 761.75191,64.9901665 C761.06705,64.2286912 761.026895,63.2891477 761.01128,62.9353546 C760.988972,62.3753773 760.951048,61.4334909 761.439596,60.4939474 C762.287306,58.8585326 764.223653,57.8088681 765.963689,58.0291103 C767.192867,58.1907773 768.183349,58.9030497 768.676359,59.9784872 C769.209524,61.1499877 769.077906,62.6213924 768.326121,63.917072 C767.784033,64.8425575 766.905092,65.5173418 765.845455,65.8219319 C765.428293,65.941425 764.991053,66 764.538198,66 C764.143344,66 763.739566,65.955483 763.322404,65.8641059 Z M244.209504,124.025024 C251.727904,123.324276 257.425077,119.432466 260.92299,116.261361 C256.355467,116.23475 248.405665,116.412155 240.789421,117.671726 C234.305051,118.740588 227.767312,119.044393 223.017445,119.097615 C228.752421,121.807468 236.828975,124.699161 244.209504,124.025024 Z M239.070485,109.054304 C233.811385,110.730776 228.899186,112.655615 224.90316,114.354263 C229.252758,114.24782 234.69865,113.915187 240.020014,113.034817 C246.911325,111.897211 253.918269,111.602276 258.757086,111.56236 C253.497986,109.162964 245.935111,106.863359 239.070485,109.054304 Z M191.262711,97.2169907 C203.319725,98.3146809 210.760295,92.5224249 213.784556,89.4777207 L173.853201,94.6978473 C178.327327,95.6159154 184.202398,96.5805522 191.262711,97.2169907 Z M181.865267,85.5260361 C177.324429,86.1691273 173.519643,88.2536298 170.662161,90.3780484 L205.496748,85.820971 C203.871208,85.2554943 202.243445,84.6767122 200.617905,84.1045828 C198.503146,84.1068003 191.127064,84.2198957 181.865267,85.5260361 Z M179.521465,59.3078728 C183.588651,64.4215567 194.360354,72.8371813 199.446004,76.693511 L175.412029,52.0520299 C176.635076,54.7574481 178.060481,57.469519 179.521465,59.3078728 Z M199.608335,66.1845136 C196.148226,59.6449413 192.814868,53.4136092 178.394039,48.3731047 L205.094255,75.7466146 C203.877879,73.7419441 202.590345,71.5643042 201.309482,69.3179201 C200.715748,68.2756688 200.162042,67.2289824 199.608335,66.1845136 Z M393.632425,189.686854 C390.041116,192.722688 386.051761,193.997782 381.844481,194 C368.255323,194 352.346824,180.696882 339.940686,170.320938 L337.398973,168.200955 C335.768985,166.843811 333.783203,165.140728 331.466086,163.15158 C319.235621,152.655888 296.831634,133.436331 268.005541,115.655968 C265.639502,118.618623 257.54071,127.504369 244.645353,128.701849 C243.753641,128.786116 242.853034,128.823815 241.952427,128.823815 C227.820682,128.823815 213.335364,119.19297 212.688261,118.756111 C212.001132,118.292642 211.607533,117.503192 211.654231,116.676044 C211.700929,115.851113 212.179029,115.110449 212.915081,114.726812 C213.373167,114.487316 224.258281,108.845854 237.633962,104.577059 C240.676012,103.607987 243.771431,103.368491 246.773454,103.552548 C237.903032,98.9112034 228.605655,94.5625763 218.945812,90.7461627 C217.464814,92.6621309 209.439405,102.05348 194.271405,102.05348 C193.163992,102.05348 192.018776,102.004694 190.835757,101.896034 C173.06378,100.292741 162.747939,96.7446513 162.316537,96.5938575 C161.609394,96.3477088 161.062359,95.7800145 160.84221,95.0659615 C160.624286,94.349691 160.757709,93.5735464 161.204677,92.9748063 C161.520445,92.5512531 169.076648,82.5877745 181.207046,80.8736038 C183.973354,80.483314 186.563989,80.1972493 188.907791,79.9843639 C188.476389,79.8335701 188.044987,79.6827763 187.613585,79.529765 C138.138021,61.9645048 86.981323,43.7982869 60.3878457,60.6029254 C49.0357509,67.7745012 48.2129742,80.0065395 51.2261159,89.0630377 C54.1970069,97.9842651 62.1090056,107.233691 72.5538223,106.435371 C80.0655513,105.863241 84.6530873,99.2283139 84.7464836,93.1455581 C84.7776157,91.1874563 84.2839497,84.7321511 76.6654821,83.9183081 C75.551398,83.8029952 75.128891,84.7388037 75.0555083,84.9295136 C74.8998478,85.3375438 74.8442548,85.9185435 75.4624492,86.3576195 C76.5164928,87.1071534 76.8278138,88.6017861 76.0873147,89.6573427 C75.344592,90.7151169 73.950319,91.0233571 72.882933,90.2915637 C70.4746434,88.5818281 69.6607615,85.8653221 70.652541,83.259694 C71.6865712,80.5542758 74.3083381,78.9421127 77.168043,79.2459178 C84.7531548,80.0597608 89.5764053,85.5437765 89.458548,93.2165199 C89.3340197,101.295076 83.4923051,110.313876 72.9118414,111.121066 C61.8488303,111.96152 51.0682317,103.503762 46.756437,90.5443651 C43.1806939,79.8025243 44.223619,65.2553577 57.8661463,56.635718 C86.4009319,38.6092061 136.330136,56.3341304 189.194651,75.105741 C189.532656,75.2232714 189.868438,75.3408019 190.206444,75.4605499 C184.958463,71.2538464 178.849902,66.0248496 175.832312,62.2283939 C171.302593,56.5381455 167.424424,44.576649 167.264316,44.0688287 C167.001917,43.2616384 167.199828,42.3768336 167.777996,41.7559179 C168.356163,41.1305672 169.225638,40.8622429 170.055086,41.0684756 C194.778414,46.9849147 199.352608,55.6311651 203.775588,63.9913508 C204.307058,64.9936861 204.836303,65.9960214 205.405576,66.9961391 C210.491225,75.9262366 215.728088,83.7320334 215.781457,83.8096478 C215.954907,84.0668843 216.059422,84.3462964 216.121686,84.6301435 C271.140987,105.193539 315.299635,143.078264 334.539268,159.590185 C336.834148,161.559375 338.802141,163.246935 340.418786,164.590774 L342.969393,166.721845 C357.935034,179.23773 378.431069,196.379437 390.585927,186.103283 C395.529259,181.923191 397.757427,176.893774 397.208168,171.152522 C396.445432,163.156015 390.419148,155.975569 387.261465,154.201524 C384.530736,152.664758 378.0308,152.04606 375.173318,154.174914 C374.375003,154.769219 373.387671,155.886867 374.036997,158.70538 C374.619612,161.235612 375.767052,163.047355 377.448185,164.091824 C380.221165,165.814865 383.69684,165.071983 383.730196,165.060896 C384.995493,164.763743 386.263014,165.548758 386.563216,166.810547 C386.858971,168.074554 386.073998,169.338561 384.806477,169.635713 C384.590776,169.6845 379.420625,170.853152 374.955394,168.078989 C372.171295,166.349296 370.316712,163.546305 369.445013,159.756502 C368.21752,154.42328 370.739219,151.613637 372.351417,150.411721 C377.010112,146.939029 385.662609,147.910318 389.571911,150.107916 C394.16167,152.684716 400.997388,161.277745 401.897995,170.706793 C402.591796,177.964853 399.736539,184.528819 393.632425,189.686854 Z M382.057616,221.027115 C395.083878,217.918341 401.847084,207.159965 405.21864,198.765154 C391.725719,213.606461 383.287899,212.403354 372.0144,208.675071 C368.008724,207.348511 365.043541,206.913058 362.877707,206.913058 C360.600233,206.913058 359.206954,207.395648 358.412071,207.833345 C357.17509,208.513459 356.884823,209.330494 356.824537,209.561688 C356.42263,211.144133 357.152761,214.838747 359.997372,217.749996 C363.083127,220.910395 369.410934,224.043859 382.057616,221.027115 Z M411.535282,186.179671 C412.531119,186.590433 413.125049,187.627439 412.977683,188.700359 C412.805756,189.959581 408.480787,219.606282 383.151697,225.653239 C379.181746,226.602705 375.714179,227 372.690944,227 C364.451844,227 359.503919,224.032636 356.621351,221.085474 C352.655866,217.02499 351.416651,211.624478 352.242794,208.383273 C352.727316,206.47985 354.149621,204.758241 356.139062,203.662875 C360.086685,201.485611 365.927737,201.651712 373.494758,204.156687 C383.919787,207.602151 391.453315,210.095904 408.742027,186.94957 C409.389544,186.083153 410.537213,185.766665 411.535282,186.179671 Z M348.702348,106.826233 C345.177446,94.176027 334.784368,85.2293501 326.375729,79.8173548 C330.270611,85.7270048 333.353778,92.1343096 335.735105,98.1128315 C335.786678,97.1752855 335.690259,96.0955524 335.531055,94.3781993 C335.414456,93.0829639 336.376404,91.9388024 337.683667,91.8210537 C339.004384,91.7277434 340.145716,92.6564027 340.264559,93.9516381 C340.757865,99.3414166 340.677142,100.034579 338.36757,105.293278 C339.995482,110.158742 341.112149,114.353261 341.784841,117.159234 C342.065128,118.334499 342.47547,119.714157 342.973262,121.222673 C344.092171,116.961505 345.724568,114.091103 345.836683,113.900039 C346.491436,112.773651 347.944449,112.389302 349.081297,113.031365 C350.218145,113.680094 350.610548,115.117516 349.958038,116.243904 C349.879557,116.379426 346.240298,122.853381 346.722393,130.384853 C346.735847,130.615907 346.682032,130.831409 346.630459,131.046911 C348.812221,136.461128 351.260816,142.061966 353.151078,146.283144 C352.707102,142.384108 352.58826,138.733899 352.503053,134.999267 C352.325911,127.212304 352.139799,119.160961 348.702348,106.826233 Z M324.880112,120.911639 C329.288482,135.890158 341.296018,145.230071 349.679992,150.135525 C346.782936,143.74155 341.874533,132.590974 338.984203,124.248592 L328.18751,113.029144 C327.28162,112.089376 327.317497,110.598633 328.268233,109.703299 C329.214486,108.807965 330.719071,108.84129 331.624962,109.781058 L336.2172,114.553211 C333.730485,105.371037 328.357926,89.3749918 318.888677,77.5423617 C319.025457,79.2708233 319.124119,81.2036787 319.231749,83.3675882 C319.698148,92.6941712 320.334963,105.471012 324.880112,120.911639 Z M314.487034,83.6008638 C314.224685,78.3643807 314.018393,74.2276257 313.186498,72.2681102 C312.816518,71.3972144 313.007114,70.3930182 313.668594,69.715408 C314.330073,69.0377977 315.33911,68.8178521 316.227062,69.1577681 C317.455845,69.6265411 346.408471,80.9126396 353.281132,105.573209 C356.875545,118.470021 357.07511,127.19453 357.252252,134.892627 C357.404729,141.559867 357.550478,147.85831 359.90714,155.99852 C360.153793,156.844977 359.900413,157.760307 359.250145,158.36238 C358.801684,158.780054 358.218685,159 357.624474,159 C357.35764,159 357.086321,158.955567 356.826214,158.864478 C355.653489,158.446803 328.02158,148.395955 320.319267,122.22687 C315.617156,106.255263 314.937737,92.6230776 314.487034,83.6008638 Z M284.304367,183.105116 C298.654488,192.611291 316.185398,190.656089 326.350622,188.271804 C324.841133,187.570674 322.952609,186.685967 320.778146,185.646437 C314.684775,184.514012 304.539501,186.031284 304.437538,186.046767 C304.315627,186.064461 304.195932,186.073308 304.078453,186.073308 C302.939132,186.073308 301.937239,185.243895 301.759913,184.084929 C301.564854,182.804316 302.447052,181.609962 303.728234,181.413114 C303.963191,181.377726 306.931188,180.937584 310.688286,180.69429 C308.684501,179.683512 306.607568,178.617441 304.48852,177.509345 C304.291244,177.46511 304.093969,177.400969 303.903343,177.303651 C303.628488,177.162098 303.358065,176.978521 303.092076,176.77725 C301.108239,175.728873 299.097804,174.647319 297.098451,173.541435 C295.619994,172.725293 294.208034,171.935692 292.82489,171.161574 C292.510136,171.316397 292.168783,171.42035 291.796398,171.42035 C289.014594,171.42035 279.990907,171.561903 279.990907,171.561903 L279.91776,166.875169 C279.91776,166.875169 282.31388,166.83978 285.022538,166.80218 C276.074215,161.858881 268.478005,158.118783 259.130698,155.836239 C260.611372,157.756053 261.81719,159.689137 263.045174,161.681939 C266.642679,167.503311 270.718965,174.105436 284.304367,183.105116 Z M295.730823,159.284384 C284.736599,153.648801 273.722427,152.538494 265.620837,152.779577 C274.906079,155.745556 282.792661,160.151397 292.793858,165.769285 C294.383144,166.660627 296.047793,167.591781 297.756775,168.542841 C297.21593,167.248957 296.814729,166.127591 296.590855,165.46185 C296.176355,164.236531 296.836895,162.907258 298.064879,162.493658 C299.292863,162.084481 300.625026,162.739164 301.039525,163.964483 C302.232044,167.487828 304.275728,171.606139 305.678822,172.840305 C313.877941,177.162098 321.600497,180.875655 326.578929,183.204646 C323.608716,180.623513 320.467826,177.858804 318.566002,176.087179 C317.947577,175.509908 317.318069,174.897248 316.646446,174.244777 C312.756353,170.462655 307.432134,165.284908 295.730823,159.284384 Z M321.77339,172.663363 C326.022568,176.62685 337.065556,186.048978 337.178602,186.144084 C337.799243,186.672697 338.100698,187.486627 337.96992,188.293922 C337.841358,189.099005 337.300514,189.780229 336.544661,190.092089 C335.775508,190.408371 324.33797,195 310.182907,195 C301.110456,195 290.92085,193.113363 281.706538,187.008885 C267.263321,177.44078 262.89888,170.374184 259.048685,164.137001 C256.758961,160.432291 254.78399,157.231864 250.847349,153.96066 C250.180159,153.405507 249.872055,152.529647 250.049381,151.68254 C250.228924,150.833222 250.860648,150.154209 251.696298,149.910915 C252.631694,149.638867 274.97701,143.375143 297.878686,155.115203 C310.205073,161.436433 315.82188,166.899498 319.924764,170.889526 C320.569788,171.515456 321.179347,172.10821 321.77339,172.663363 Z M30.4350852,79.8458493 C31.7267118,79.0179456 32.671968,76.6332229 33.0987857,73.1303802 C33.8563314,66.9053541 35.8451682,60.9075515 38.5267459,56.2730904 C34.5222566,58.108877 29.9456973,61.0942798 27.5389813,65.710743 C23.858516,72.7681723 24.6987436,76.5904779 25.2305899,77.9043251 C25.6417651,78.9234566 26.296517,79.625375 27.0674706,79.8773457 C29.2663643,80.5950122 30.144581,80.0325776 30.4350852,79.8458493 Z M37.7982506,73.7108127 C37.1703145,78.8672131 35.592653,82.187827 32.9803494,83.8661318 C31.8004552,84.6220439 30.468605,85 28.9959719,85 C27.9367487,85 26.8037821,84.8042728 25.6037761,84.4105685 C23.4808605,83.7153994 21.7914665,82.0438437 20.8462104,79.7018661 C19.6596123,76.7704569 19.1322353,71.5780607 23.3467816,63.4947507 C29.2507218,52.1695676 44.5491224,49.1661668 45.1971704,49.0424312 C46.2809747,48.8332055 47.3625443,49.4136381 47.80277,50.4327695 C48.2429957,51.451901 47.9279103,52.6397629 47.040755,53.301186 C42.6653141,56.5655564 38.8641777,64.9570806 37.7982506,73.7108127 Z M108.130337,94.9602588 C108.539037,92.1536021 108.020904,89.9321257 106.669738,88.7065596 C105.832239,87.9469295 104.825006,87.6775258 103.96294,87.6775258 C103.650274,87.6775258 103.357707,87.7128574 103.096407,87.7724795 C101.215942,88.2097085 100.032276,93.493996 98.5337105,100.187132 C98.2590107,101.419323 97.9664442,102.726594 97.6448444,104.111152 C96.726945,108.092586 94.7995797,111.349721 92.6086811,113.933346 C105.832239,107.714979 107.904771,96.4949767 108.130337,94.9602588 Z M102.017708,83.216907 C104.764706,82.5831458 107.773004,83.3604417 109.865636,85.2573088 C111.337402,86.591078 113.677934,89.7113029 112.813634,95.6293516 C111.326235,105.791613 102.296875,118.78703 81.7323551,121.969085 C81.6095219,121.988959 81.4866886,122 81.3638554,122 C80.332056,122 79.3985233,121.328699 79.0970235,120.321747 C78.7620238,119.19776 79.3181234,118.000901 80.4012893,117.523924 C80.5844225,117.440011 90.7996824,112.754153 93.0330142,103.073285 C93.3501473,101.69756 93.6404805,100.399122 93.9129469,99.1757644 C96.0569455,89.6008916 97.238378,84.3276452 102.017708,83.216907 Z M56.1647155,126.600618 C56.9173771,126.145791 57.3145542,125.49057 57.3474694,124.650717 C57.439632,122.275259 54.7581381,120.687868 48.6863757,117.326201 L47.3434344,116.580915 C42.7726065,114.038838 39.5973841,108.594424 37.6773292,104.251052 C36.9751376,106.700813 36.4594657,109.308187 36.7052328,111.093721 C37.3437882,115.781591 38.6779521,121.120179 46.4283911,125.137066 C52.5001535,128.284829 55.4164427,127.055445 56.1647155,126.600618 Z M50.8938904,113.126932 C57.7051482,116.898394 62.2035627,119.388684 61.9929052,124.842104 C61.8963539,127.29862 60.6324091,129.437658 58.5214459,130.712074 C57.5054625,131.324514 55.846535,132 53.4634725,132 C51.1374631,132 48.1180395,131.356037 44.3327883,129.394877 C35.0177788,124.569658 32.9221759,117.76977 32.1014896,111.755697 C31.3400506,106.19645 35.0989697,97.3926211 35.5312563,96.4064121 C35.9328221,95.4900033 36.8588372,94.9361051 37.8265449,95.0059053 C38.80303,95.0802087 39.628105,95.7782105 39.8914268,96.7464065 C40.8020815,100.108073 44.3174278,109.472555 49.5597265,112.388401 L50.8938904,113.126932 Z M60.8939083,70.7025319 C61.7919479,71.6239696 61.7765403,73.0943019 60.8652943,73.9958999 C60.7024146,74.1590253 57.752971,77.2253404 58.9591614,81.3762186 C60.3260304,86.0892178 63.960009,88.7212669 63.9974274,88.7455152 C65.0539445,89.4817836 65.3180737,90.9366851 64.585115,91.9969997 C64.1316931,92.649501 63.4031365,93 62.6657756,93 C62.2079515,93 61.7435242,92.8655318 61.338526,92.5833691 C61.1338258,92.4422877 56.3266729,89.0431087 54.4799691,82.6812212 C52.4747876,75.7748477 57.3875922,70.870066 57.5966945,70.6650572 C58.5167449,69.7634591 59.9958688,69.7810943 60.8939083,70.7025319 Z M376.17485,107.217943 C374.550364,108.63211 373.732519,111.094217 373.747982,114.533665 C373.911772,116.373627 377.958424,124.929228 393.611751,132.158909 C400.127622,135.168151 404.69411,138.889991 407.880344,142.459605 C402.874685,119.292415 394.770178,107.270891 383.25537,105.812601 C382.527152,105.719941 381.841507,105.673611 381.198434,105.673611 C379.040668,105.673611 377.355684,106.189859 376.17485,107.217943 Z M391.595147,136.390379 C372.83625,127.726675 369,117.072989 369,114.694717 C368.980056,109.706524 370.335662,106.059694 373.033429,103.714515 C375.634848,101.450965 379.287142,100.59717 383.860351,101.175191 C400.076087,103.23136 409.961927,120.439633 414.976549,155.334924 C415.155802,156.592451 414.288663,157.759525 413.018202,157.969113 C412.886003,157.991175 412.753803,158 412.623844,158 C411.510231,158 410.519854,157.227834 410.298028,156.118121 C410.183753,155.575398 407.53304,143.752432 391.595147,136.390379 Z M295.887648,111.519875 C294.161006,110.401262 293.966454,108.971568 294.004038,108.217303 C294.048254,107.388464 294.413038,106.208061 295.911967,105.259903 C296.431507,104.933907 296.968734,104.656918 297.521437,104.426803 C298.821393,103.891999 300.021862,103.857908 301.091894,104.335183 C301.958532,104.722969 302.652726,105.419705 303.15458,106.406215 C304.005742,108.068155 304.226823,110.068874 303.760342,111.890615 C303.51052,112.868603 302.714629,113.633521 301.695445,113.867897 C301.312975,113.957386 300.926084,114 300.536981,114 C299.049106,114 297.576707,113.365054 296.570788,112.240049 C296.427086,112.075986 296.305491,111.9034 296.206005,111.72016 C296.099886,111.654109 295.993767,111.588057 295.887648,111.519875 Z M279.046833,97.9692088 C277.483459,97.7954584 275.21645,96.8365323 273.930337,95.1408165 C273.124186,94.0763205 272.828286,92.8424728 273.096227,91.6702076 C273.396786,90.3483851 274.410299,89.1849173 275.805919,88.5624951 C276.733226,88.1490132 277.795668,87.970864 279.042173,88.0038546 C279.876283,88.0302471 281.097159,88.1578107 282.157271,88.9627808 C282.590635,89.2926866 282.956432,89.7017697 283.268641,90.2164228 C284.310114,91.9297335 284.230896,94.5557836 283.084578,96.1921163 C282.271437,97.3577834 281.017942,98 279.589703,98 C279.41263,98 279.230896,97.9890031 279.046833,97.9692088 Z M253.371944,84.6542294 C251.247617,83.8994098 249.835677,81.7886271 250.015379,79.6394253 C250.13304,78.2156639 250.890353,77.1331533 251.448711,76.441612 C252.800751,74.7715173 254.293984,73.9421198 255.866371,74.0031381 C257.051545,74.0415571 258.198211,74.5929821 259.096718,75.5511961 C259.721395,76.2178781 260.207016,77.0495355 260.585673,78.0981471 C261.11622,79.5625874 261.137613,80.8801317 260.647713,82.0146209 C260.35035,82.7016423 259.916071,83.2146484 259.436867,83.6033579 C259.064629,84.1660826 258.467763,84.5773915 257.731843,84.7265474 C257.038709,84.8734434 256.26856,85 255.468461,85 C254.786023,85 254.077914,84.9073425 253.371944,84.6542294 Z M229.710832,71.8030242 C227.731782,71.3215277 226.835401,70.161559 226.43214,69.2729791 C226.103394,68.552923 225.960937,67.6971725 226.009153,66.7276137 C226.083669,65.2371633 226.570213,63.7839194 227.374545,62.6327052 C227.545493,62.3897683 228.064911,61.6456374 228.976633,61.256063 C229.943146,60.8446024 230.848293,61.037201 231.141973,61.1006709 C233.281013,61.5646584 235.163631,63.0616747 236.318625,65.2130885 C236.555322,65.6551898 236.884068,66.3424165 236.976117,67.2069216 C237.098849,68.3559472 236.743803,69.4874639 236.020562,70.2337834 C235.538401,70.7327889 234.915976,71.0588933 234.162052,71.2077195 C234.122602,71.2142853 234.085345,71.2208512 234.045895,71.2296057 C233.248138,71.7373656 232.312308,72 231.293196,72 C230.782544,72 230.254359,71.9343414 229.710832,71.8030242 Z M154.659329,76.1133863 C154.992177,76.4557129 155.261625,76.8674301 155.490317,77.3739809 C156.242055,79.0462927 156.226205,81.9421907 155.010291,83.5983113 C154.344595,84.5050142 153.3936,85 152.349771,85 C152.17995,85 152.01013,84.9861219 151.838045,84.9606787 C150.429668,84.7501941 148.914869,83.7555965 147.975196,82.4302374 C147.175908,81.3037978 146.852117,79.9946299 147.062694,78.7456004 C147.062694,78.7432873 147.062694,78.7432873 147.064958,78.7409743 C147.280064,77.4641886 148.05671,76.3123058 149.139032,75.6623479 C149.93832,75.1835532 150.880258,74.9615035 151.948994,75.0054509 C153.069809,75.0493982 153.982311,75.4241071 154.659329,76.1133863 Z M130.427188,69.4747835 C132.184883,70.3875572 133.547384,72.5795631 132.78227,74.6681512 C132.78227,74.6681512 132.78227,74.6703994 132.779972,74.6726476 C132.490469,75.4640179 132.017155,76.0800277 131.640342,76.5274217 C131.337054,76.8848873 130.427188,77.9595322 128.917638,78 C128.887769,78 128.855602,78 128.825733,78 C127.532161,78 126.397127,77.2693314 125.707835,75.9811064 C124.864601,74.4096069 124.65092,71.8983551 125.756085,70.4190322 C126.840571,68.9644396 128.717744,68.5889884 130.427188,69.4747835 Z M103.074805,71 C101.453389,71 100.499491,70.2569666 99.9730576,69.5891772 C99.1223407,68.5146005 99.0107367,67.2025353 99.0002081,66.3066628 C98.9875737,64.940516 99.5498049,63.2122581 100.834303,62.4104404 C101.79873,61.8108407 102.92951,61.869625 103.929734,62.5773878 C103.969743,62.6079556 107.72848,65.3802224 106.873551,68.467573 L106.873551,68.4699244 C106.48399,69.8689904 105.342682,70.7766197 103.742323,70.9600267 C103.508587,70.9882431 103.285379,71 103.074805,71 Z M77.0417758,60.030619 C78.7748556,59.8033909 80.7131392,60.862227 81.5629505,62.4973322 C82.0469638,63.4296701 82.0112762,64.3690357 81.9889714,64.9312495 C81.9733581,65.2849757 81.93544,66.2219988 81.2439925,66.9950428 C80.6551468,67.655644 79.9146288,67.8125954 79.6715069,67.8664742 C79.2588689,67.9554914 78.8551527,68 78.462589,68 C78.0120328,68 77.57709,67.9390935 77.1622215,67.8219656 C76.1005149,67.5197757 75.2194769,66.8427765 74.6774713,65.9198088 C73.9213399,64.6220319 73.7897419,63.1509058 74.3250561,61.979627 C74.8179913,60.9020505 75.8083226,60.1922555 77.0417758,60.030619 Z M433.915595,169.106025 C434.793145,173.032574 428.659092,181.113855 423.360802,187.20249 C422.916529,187.713077 422.283109,188 421.623297,188 C421.568313,188 421.513328,187.997741 421.458344,187.995482 C420.739149,187.943519 420.083736,187.552672 419.68345,186.935901 C418.959856,185.822098 415.128547,182.254768 412.638857,180.079125 C409.588326,177.801817 404.987237,172.232805 407.96079,166.507906 C408.855935,164.781851 410.27673,163.63642 412.06482,163.198128 C415.308896,162.402878 419.056628,164.178636 421.115242,165.389585 C424.711217,162.723689 427.462633,162.791466 429.208936,163.374349 C431.531474,164.158303 433.290973,166.300057 433.915595,169.106025 Z M395.773651,63.9286891 C395.509618,63.7381101 395.335087,63.4500256 395.290336,63.1309165 L393.010253,46.320075 C392.947601,45.8502756 393.175833,45.3871243 393.592021,45.1500085 C394.005971,44.9128928 394.525087,44.9439173 394.907712,45.2320018 C398.584038,48.026422 404.723928,51.7272004 406.898845,51.2042161 C408.500944,50.8186261 411.566414,45.5067902 413.396746,42.331212 C416.108679,37.6265697 417.117823,36 418.518541,36 C419.968486,36 421.14321,37.834877 424.130365,43.0780158 C425.291663,45.116768 426.992216,48.1061992 427.833542,48.9416444 C428.500337,48.5649185 429.802603,47.6386158 430.885586,46.8674356 C435.349537,43.6985056 438.184537,41.8170919 439.941029,42.3688846 C440.751029,42.6237286 442.901333,43.3040514 441.581167,59.614069 C441.54089,60.1015967 441.203018,60.5137792 440.728653,60.6489573 C440.574261,60.693278 425.443818,65.0788113 421.252851,74.3085971 C421.067133,74.7141315 420.668845,74.9800557 420.223569,75 C420.205669,75 420.187768,75 420.169867,75 C419.742492,75 419.344204,74.7717484 419.133873,74.3994545 C418.834039,73.863174 411.539563,61.3137678 396.688817,64.1281323 C396.368844,64.1879652 396.037684,64.1148361 395.773651,63.9286891 Z" id="1"></path>
            </g>
        </g>
    </g>
</svg>
