<svg width="151px" height="180px" viewBox="0 0 151 180" version="1.1" xmlns="http://www.w3.org/2000/svg" xmlns:xlink="http://www.w3.org/1999/xlink">
    <g id="Page-1" stroke="none" stroke-width="1" fill="none" fill-rule="evenodd">
        <g id="Desktop-HD" transform="translate(-459.000000, -362.000000)" stroke="#F7F2E9">
            <g id="2kiri" transform="translate(534.500000, 452.500000) scale(-1, 1) translate(-534.500000, -452.500000) translate(462.000000, 365.000000)">
                <path d="M93.7411756,163.053196 C94.5401602,160.791218 95.8644951,159.77374 97.7141803,160.000764 C100.666506,160.363121 103.002469,164.406313 101.793487,167.880124 C100.002824,173.0253 93.8735798,175.098922 88.4824056,173.637978 C83.5284024,172.295503 80.0147772,167.964363 79.1252957,165.239797 C76.6980687,157.804972 82.2571802,153.735887 83.2067628,152.982326 C89.5448239,147.952629 96.9770778,145.006213 99.3265974,143.492986 C101.029756,142.396053 103.717846,140.292922 107.390868,137.183594 C105.807907,137.159609 104.922484,137.143607 104.734599,137.135587 C103.120022,137.066667 101.923539,136.923699 101.145149,136.706685 C97.8375259,135.784523 95.811302,133.909265 95.3199585,133.242294 C92.9930428,130.08364 93.6186072,126.55338 94.6160099,125.153013 C98.6881415,119.435686 101.951221,123.208912 102.451399,125.153013 C102.676245,126.026948 102.676245,127.065313 102.451399,128.268108" id="Path-10" stroke-width="5" stroke-linecap="round" stroke-linejoin="round"></path>
                <path d="M107.390868,137.183594 C109.457016,135.590288 110.86272,134.397493 111.60798,133.605208 C114.527355,130.501624 115.89531,127.812242 116.358141,126.14085 C118.150323,119.668847 113.485484,114.157492 109.955709,112.276894 C107.540134,110.989922 103.470783,108.985559 98.2253721,109.766198 C94.5948872,110.3065 90.5226756,112.950883 85.5452554,114.924623 C83.0836233,115.900756 77.9128998,117.213921 70.0330849,118.864117" id="Path-11" stroke-width="5" stroke-linecap="round" stroke-linejoin="round"></path>
                <path d="M65.7725272,107.279474 C63.7255745,109.183639 61.4767864,109.050545 59.026163,106.880192 C57.7188794,105.722419 56.4493817,101.346968 58.6463634,98.6324619 C62.3383115,94.0708333 69.9609579,95.1183256 72.8111095,98.2350461 C75.728947,101.425783 77.6819869,111.446253 70.8305805,118.022314 C67.2440365,121.464722 58.5577577,123.409195 52.4825459,119.411485 C46.0862211,115.202472 41.5870802,108.772107 40.8064948,101.882193 C40.3965222,98.2635297 41.1491946,90.0689368 38.9131258,83.7510833 C36.8561823,77.9393354 32.521244,74.6249322 25.9083108,73.8078738" id="Path-12" stroke-width="5" stroke-linecap="round" stroke-linejoin="round"></path>
                <path d="M31.5155902,77.2304938 C31.8896459,79.6201878 31.5667198,81.2433179 30.5468119,82.0998841 C29.01695,83.3847333 26.0736314,84.2133669 23.361827,82.0998841 C20.6500225,79.9864013 20.1432603,76.3925166 21.7525436,74.7859858 C23.361827,73.1794549 25.6002049,70.9945975 29.4420553,73.2718159 C33.2839057,75.5490344 36.2905314,78.9483472 36.2905314,81.0429845 C36.2905314,83.1376218 36.2905314,88.7480935 31.9816768,92.6838341 C27.6728223,96.6195747 25.6179431,96.7948159 22.8517007,96.7948159 C20.0854583,96.7948159 13.6045912,96.2635872 8.12837928,90.8528232 C2.6521674,85.4420592 8.52651283e-14,82.4981289 8.52651283e-14,73.2718159 C8.52651283e-14,61.8049842 16.565648,55.3791238 21.7525436,53.9845769 C26.9394393,52.59003 43.9608634,51.0250492 46.4991739,51.0250492 C49.0374843,51.0250492 92.5185964,49.4638666 104.636544,47.4542662 C116.754492,45.4446658 140.025057,38.3453747 144.06687,24.1729076 C147.721453,11.3582478 133.104114,5.68434189e-14 123.819208,5.68434189e-14 C117.516406,5.68434189e-14 105.950661,6.57705452 112.452531,20.1507638 C113.451549,22.2363759 116.440271,22.0969705 121.418699,19.7325474" id="Path-13" stroke-width="6" stroke-linecap="round"></path>
                <path d="M118.828454,14.1020628 C119.877588,13.6828569 120.564594,13.4732539 120.889472,13.4732539 C121.295067,13.4732539 121.86066,13.6189019 122.338354,13.7824426 C122.664854,13.8942213 122.950291,13.8607744 123.115512,13.9484784 C123.522464,14.1645002 124.410543,14.4871257 125.14642,15.5214344 C125.306417,15.7463174 125.485443,16.182679 125.683498,16.8305193 C125.970127,17.688586 126.113441,18.2904224 126.113441,18.6360286 C126.113441,19.8740502 125.683498,20.6237287 125.683498,20.8572072 C125.683498,21.0877154 125.38668,21.7532396 124.557641,22.4523371 C124.316102,22.6560175 123.835393,22.9393783 123.115512,23.3024196 C122.261917,23.565674 121.671348,23.7194528 121.343806,23.7637562 C120.598953,23.8645051 120.080888,23.7105368 119.801077,23.7637562 C119.336701,23.8520797 117.85462,23.5309452 115.354833,22.8003528 C114.179728,21.8486455 113.602464,21.2009303 113.623041,20.8572072 C113.726271,19.1329012 115.634695,18.3326704 115.68546,18.050558 C115.739428,17.750643 115.827446,17.0060417 116.611634,15.9079628 C116.69006,15.7981448 116.930023,15.2765128 117.577839,14.7649497 C117.784799,14.6015184 118.201671,14.3805561 118.828454,14.1020628 Z" id="Path-7" stroke-width="6" stroke-linecap="round" stroke-linejoin="round"></path>
                <path d="M50.4705598,71.7736123 C53.6591195,72.3751276 56.6538053,73.604401 59.4546171,75.4614326 C69.9890881,82.4461378 72.8236163,89.3550162 87.9008168,88.3124879 C93.1678177,87.9482957 98.6166621,85.3675439 104.24735,80.5702325 C100.574923,76.7256524 96.6513461,73.7416456 92.4766191,71.6182122 C84.1172647,67.3663095 76.9529109,65.8385745 69.9937439,66.1537707 C64.6126943,66.3974904 58.1049663,68.2707709 50.4705598,71.7736123 Z" id="Path-9" stroke-width="6" stroke-linejoin="round" transform="translate(77.358955, 77.265607) rotate(14.000000) translate(-77.358955, -77.265607) "></path>
                <path d="M59.6870849,25.9069395 C62.118077,26.3654226 64.4012574,27.3023913 66.5366263,28.7178457 C74.5682196,34.0416819 76.7292943,39.3077219 88.2243132,38.5130928 C92.239931,38.2355006 96.3941883,36.2684169 100.687085,32.6118417 C97.8871873,29.681451 94.8958103,27.407001 91.7129538,25.7884915 C85.3396926,22.5476341 79.8775127,21.383174 74.5717693,21.6234208 C70.4691995,21.8091872 65.5076381,23.2370268 59.6870849,25.9069395 Z" id="Path-9" stroke-width="6" stroke-linejoin="round" transform="translate(80.187085, 30.093011) rotate(-24.000000) translate(-80.187085, -30.093011) "></path>
            </g>
        </g>
    </g>
</svg>
