<svg width="116px" height="122px" viewBox="0 0 116 122" version="1.1" xmlns="http://www.w3.org/2000/svg" xmlns:xlink="http://www.w3.org/1999/xlink">
    <g id="Page-1" stroke="none" stroke-width="1" fill="none" fill-rule="evenodd">
        <g id="Desktop-HD" transform="translate(-489.000000, -596.000000)" stroke="#F7F2E9">
            <g id="3kiri" transform="translate(492.000000, 599.000000)">
                <path d="M21.3470573,-3.55271368e-14 C10.5251026,5.25005473 3.7203624,14.621175 0.932836882,28.1133609 C-0.884500401,36.90964 -0.0464580053,47.4464122 3.44696407,59.7236776" id="Path-6" stroke-width="5" stroke-linecap="round"></path>
                <path d="M35.6384554,17.3253631 C26.6418984,20.5963531 20.5642265,27.1872475 17.4054398,37.0980463 C15.1638069,44.1312443 16.1823492,52.7987153 20.4610668,63.1004593" id="Path-6" stroke-width="5" stroke-linecap="round"></path>
                <path d="M37.0321529,29.6286727 C34.0329896,33.142711 31.8523152,36.4258039 30.4901297,39.4779515 C29.5596319,41.5628486 29.0224906,44.8459415 28.8787058,49.3272302" id="Path-6" stroke-width="5" stroke-linecap="round"></path>
                <path d="M71.7634277,83.0657514 C69.9770479,84.2276478 68.2591778,86.0916921 66.6098176,88.6578843 C65.2629716,90.7534033 64.6730215,92.9898542 64.8399673,95.3672369" id="Path-6" stroke-width="5" stroke-linecap="round" transform="translate(68.287889, 89.216494) rotate(-129.000000) translate(-68.287889, -89.216494) "></path>
                <polygon id="Path-7" stroke-width="5" stroke-linecap="round" stroke-linejoin="round" points="12.1118329 71.9495434 12.9582464 71.9495434 12.9582464 72.5487584 11.9701913 72.7366846"></polygon>
                <polygon id="Path-7" stroke-width="6" stroke-linecap="round" stroke-linejoin="round" points="20.2594468 83.0559727 21.952274 83.0559727 21.952274 84.2544028 19.9761638 84.6302553"></polygon>
                <polygon id="Path-7" stroke-width="6" stroke-linecap="round" stroke-linejoin="round" points="35.1118329 76.9495434 35.9582464 76.9495434 35.9582464 77.5487584 34.9701913 77.7366846"></polygon>
                <path d="M85.5546748,55.2688315 C86.3353822,55.0180685 86.915123,54.892687 87.2938971,54.892687 C87.6726711,54.892687 88.2214818,55.0180685 88.9403291,55.2688315 C89.1526796,55.8707285 89.2588549,56.3372996 89.2588549,56.6685449 C89.2588549,56.9997901 89.1526796,57.3321724 88.9403291,57.6656917 C88.1934738,58.4128845 87.5878581,58.8306427 87.1234818,58.9189662 C86.6591056,59.0072897 85.9473145,58.8400998 84.9881087,58.4173965 C84.78104,57.5350802 84.7104775,56.9106886 84.7764211,56.5442217 C84.8423647,56.1777549 85.1017826,55.7526248 85.5546748,55.2688315 Z" id="Path-7" stroke-width="6" stroke-linecap="round" stroke-linejoin="round"></path>
                <path d="M99.854134,94.4901322 C99.854134,92.9331687 98.3315838,91.0239293 97.0208141,91.1522 C95.0573909,91.3443388 93.5230794,93.2560399 92.9891262,94.4901322 C92.3201912,96.0361995 92.1906638,98.0734766 92.9891262,99.2923291 C94.374672,101.407364 95.6364474,102.608474 98.4369094,102.608474 C100.885049,102.608474 102.549663,101.359141 105.495281,98.5488933 C109.147399,95.0646129 110.298586,92.673935 109.147212,88.5448389 C107.620036,83.0680318 98.4369094,78.108852 92.2378467,78.108852 C79.4745804,78.108852 77.8961181,80.4333666 65.3804131,78.9610806 C55.87673,77.843114 49.3493541,74.6696879 45.9888767,70.5886181 C42.2545777,66.0535673 41.6166574,61.5693514 41.6166574,56.0051393 C41.6166574,51.9579547 42.5013172,45.084995 47.3894311,38.7597874 C49.0036667,36.6709704 50.8270692,34.8182146 54.0969641,34.8182146 C59.629505,34.8182146 63.6271801,38.0542324 63.6271801,42.9331338 C63.6271801,45.4709039 60.8172975,50.1441769 57.8939165,49.5956958 C55.7181918,49.187489 55.2878281,46.4385955 55.8110556,45.4709039" id="Path-8" stroke-width="5" stroke-linecap="round"></path>
                <path d="M22.8988464,103.036881 C27.6525672,103.192463 31.674358,103.927564 34.9642189,105.242181 C47.3381112,110.186749 49.1169758,115.558982 67.5511132,115.558982 C74.284199,115.558982 80.5430855,113.314768 86.3277728,108.826339 C77.4766409,108.501143 70.9716627,107.51199 66.8128383,105.85888 C51.2202511,99.6609115 52.0620627,96.7531711 38.6133794,95.7882829 C32.4777027,95.3480731 27.2395251,97.7642724 22.8988464,103.036881 Z" id="Path-9" stroke-width="6" stroke-linejoin="round"></path>
            </g>
        </g>
    </g>
</svg>
