<svg width="803px" height="204px" viewBox="0 0 803 204" version="1.1" xmlns="http://www.w3.org/2000/svg" xmlns:xlink="http://www.w3.org/1999/xlink">
    <g id="Page-1" stroke="none" stroke-width="1" fill="none" fill-rule="evenodd">
        <g id="Desktop-HD" transform="translate(-319.000000, -118.000000)" stroke="#F7F2E9">
            <g id="back" transform="translate(319.000000, 120.000000)">
                <path d="M363.360804,142.704551 C360.373204,143.674541 354.641315,142.704551 352.747982,139.621658 C350.27391,135.593157 349.075202,132.493469 350.672445,129.280386 C352.269687,126.067302 359.064851,124.893506 364.549725,126.21759 C371.450076,127.88338 379.601491,138.7896 378.513252,148.034351 C377.384825,157.620511 372.257254,163.978551 364.126394,166.290048 C356.523851,168.451351 348.518902,163.057438 339.946341,157.578495 C318.763404,144.039936 321.288288,143.704551 303.236308,129.280386 C274.693725,106.473858 262.04814,96.5358583 240.893567,84 C206.945117,63.8826977 178.331875,55.9335525 124.746427,37.900428 C99.5455828,29.4195813 84.096735,25.5802258 61.6398878,27.3725624 C45.0860114,28.6937683 37.8473447,32.0992708 33,37.900428 C29.1245484,42.5384528 24.9109011,51.6024307 26,58.6065302 C27,65.0376264 31.3938877,74.4459323 38.5,79.2510515 C41.8010757,81.4832231 47.3669528,85.7498954 53,84 C59.571812,81.9584791 65.8485795,75.9412581 66.2195672,68 C66.5205472,61.5573077 62.3534072,57.6337696 56.6051656,56.5 C53.4365923,55.8750381 51.8476931,57.2923739 51.4205771,59.6586043 C51.1757254,61.0150872 51.4555474,62.6775258 53,63.5862052" id="Path-2" stroke-width="5" stroke-linecap="round"></path>
                <path d="M38.5,46.9873226 C35.5857477,49.5930547 34.4989854,52.491472 35.2397129,55.6825744 C36.1905063,59.7786538 38.4163666,63.2346349 41.9172939,66.0505179" id="Path-3" stroke-width="5" stroke-linecap="round"></path>
                <path d="M56.9362641,38.9758905 L57.2206635,39.2361137" id="Path-4" stroke-width="10" stroke-linecap="round"></path>
                <path d="M81.9362641,41.9758905 L82.2206635,42.2361137" id="Path-4" stroke-width="10" stroke-linecap="round"></path>
                <path d="M107.936264,47.9758905 L108.220664,48.2361137" id="Path-4" stroke-width="10" stroke-linecap="round"></path>
                <path d="M130.936264,54.9758905 L131.220664,55.2361137" id="Path-4" stroke-width="10" stroke-linecap="round"></path>
                <path d="M209.936264,40.9758905 L210.220664,41.2361137" id="Path-4" stroke-width="10" stroke-linecap="round"></path>
                <path d="M233.936264,53.9758905 L234.220664,54.2361137" id="Path-4" stroke-width="10" stroke-linecap="round"></path>
                <path d="M257.936264,67.9758905 L258.220664,68.2361137" id="Path-4" stroke-width="10" stroke-linecap="round"></path>
                <path d="M277.936264,83.9758905 L278.220664,84.2361137" id="Path-4" stroke-width="10" stroke-linecap="round"></path>
                <path d="M60.7860387,94.4227106 C63.4366148,94.7742792 69.918933,93.018363 76.9156301,88.5 C80.7729784,86.0089818 84.3813711,82.4565764 87.2665263,77.2241794 C90.0671173,72.1451446 90.4139739,68 89.6253755,64.649206 C88.7238157,60.8184335 84.7491545,59.7099748 82.2282053,60.1330488 C78.7265946,60.7207006 76.9156301,64.649206 75.3895246,73.7960132 C74.394503,79.7597366 71.9979037,86.0353795 67.8121587,89.5635423 C62.8578912,93.7394923 59.3082321,94.2266965 60.7860387,94.4227106 Z" id="Path-5" stroke-width="5"></path>
                <path d="M351.492393,128.936642 C355.350022,129.447375 364.784339,126.896507 374.967279,120.332558 C380.581235,116.713787 385.832862,111.55311 390.031895,103.951864 C394.107854,96.5734109 394.612667,90.5516457 393.464947,85.6838553 C392.152823,80.1187872 386.368131,78.5084988 382.699161,79.12311 C377.602943,79.976808 374.967279,85.6838553 372.746197,98.9716729 C371.29805,107.635337 367.810057,116.752136 361.718155,121.877595 C354.507752,127.944112 349.341605,128.651887 351.492393,128.936642 Z" id="Path-5" stroke-width="5" transform="translate(372.500000, 104.000000) rotate(-76.000000) translate(-372.500000, -104.000000) "></path>
                <path d="M339.492393,204.936642 C343.350022,205.447375 352.784339,202.896507 362.967279,196.332558 C368.581235,192.713787 373.832862,187.55311 378.031895,179.951864 C382.107854,172.573411 382.612667,166.551646 381.464947,161.683855 C380.152823,156.118787 374.368131,154.508499 370.699161,155.12311 C365.602943,155.976808 362.967279,161.683855 360.746197,174.971673 C359.29805,183.635337 355.810057,192.752136 349.718155,197.877595 C342.507752,203.944112 337.341605,204.651887 339.492393,204.936642 Z" id="Path-5" stroke-width="5" transform="translate(360.500000, 180.000000) scale(1, -1) rotate(-103.000000) translate(-360.500000, -180.000000) "></path>
                <path d="M245.641256,176.917634 C250.665145,177.581587 262.951697,174.265459 276.213201,165.732325 C283.524399,161.027923 290.363728,154.319044 295.832236,144.437423 C301.140462,134.845434 301.797892,127.017139 300.303186,120.689012 C298.594375,113.454423 291.060822,111.361048 286.282628,112.160043 C279.645693,113.26985 276.213201,120.689012 273.320628,137.963175 C271.434669,149.225939 266.892167,161.077777 258.958528,167.740873 C249.568235,175.627345 242.840229,176.547452 245.641256,176.917634 Z" id="Path-5" stroke-width="5" transform="translate(273.000000, 144.500000) scale(1, -1) rotate(-141.000000) translate(-273.000000, -144.500000) "></path>
                <path d="M201.435138,115.944245 C204.844205,116.39369 213.181509,114.148926 222.180386,108.372651 C227.141556,105.188133 231.782529,100.646737 235.493303,93.9576403 C239.095313,87.4646016 239.541427,82.1654482 238.527162,77.8817927 C237.367611,72.9845327 232.255558,71.5674789 229.013212,72.1083368 C224.509578,72.859591 222.180386,77.8817927 220.217569,89.5750721 C218.937811,97.1990969 215.855399,105.22188 210.471858,109.732283 C204.099874,115.070818 199.534441,115.69366 201.435138,115.944245 Z" id="Path-5" stroke-width="5" transform="translate(220.000000, 94.000000) rotate(-141.000000) translate(-220.000000, -94.000000) "></path>
                <path d="M148.435138,91.9442446 C151.844205,92.39369 160.181509,90.1489264 169.180386,84.3726507 C174.141556,81.1881327 178.782529,76.6467372 182.493303,69.9576403 C186.095313,63.4646016 186.541427,58.1654482 185.527162,53.8817927 C184.367611,48.9845327 179.255558,47.5674789 176.013212,48.1083368 C171.509578,48.859591 169.180386,53.8817927 167.217569,65.5750721 C165.937811,73.1990969 162.855399,81.2218796 157.471858,85.7322833 C151.099874,91.0708183 146.534441,91.6936601 148.435138,91.9442446 Z" id="Path-5" stroke-width="5" transform="translate(167.000000, 70.000000) rotate(-146.000000) translate(-167.000000, -70.000000) "></path>
                <path d="M147.137755,57.4900573 C151.354233,58.051864 161.666161,55.2459095 172.796351,48.0255648 C178.932535,44.0449174 184.672687,38.368173 189.262327,30.0068019 C193.717445,21.8905035 194.269217,15.2665617 193.014732,9.91199236 C191.580551,3.79041743 185.257748,2.01910016 181.247478,2.69517248 C175.677194,3.63424026 172.796351,9.91199236 170.368657,24.5285916 C168.785798,34.0586226 164.973341,44.087101 158.314751,49.7251056 C150.433612,56.3982743 144.786893,57.1768267 147.137755,57.4900573 Z" id="Path-5" stroke-width="5" transform="translate(170.099558, 30.059751) scale(1, -1) rotate(-186.000000) translate(-170.099558, -30.059751) "></path>
                <path d="M280.698511,123.910031 C286.170961,124.635272 299.554527,121.01304 314.000094,111.692232 C321.964077,106.553578 329.414061,99.2254169 335.370828,88.4316469 C341.153003,77.9542435 341.869132,69.4033369 340.240971,62.4910746 C338.379587,54.5886778 330.173396,52.3020683 324.968577,53.1748162 C317.739059,54.3870673 314.000094,62.4910746 310.849256,81.3597755 C308.794908,93.662179 303.846825,106.608033 295.204825,113.886184 C284.976113,122.500639 277.647392,123.505679 280.698511,123.910031 Z" id="Path-5" stroke-width="5" transform="translate(310.500000, 88.500000) rotate(-66.000000) translate(-310.500000, -88.500000) "></path>
                <path d="M10.3383233,103.374406 C12.9888994,103.725974 19.4712176,101.970058 26.4679147,97.4516953 C30.325263,94.9606771 33.9336557,91.4082717 36.8188109,86.1758747 C39.6194019,81.0968399 39.9662585,76.9516953 39.1776601,73.6009012 C38.2761003,69.7701288 34.301439,68.66167 31.7804899,69.084744 C28.2788792,69.6723959 26.4679147,73.6009012 24.9418092,82.7477084 C23.9467875,88.7114318 21.5501883,94.9870748 17.3644433,98.5152376 C12.4101758,102.691188 8.86051667,103.178392 10.3383233,103.374406 Z" id="Path-5" stroke-width="5" transform="translate(24.772648, 86.209010) rotate(111.000000) translate(-24.772648, -86.209010) "></path>
                <path d="M2.27482409,55.9645193 C4.42791911,56.25053 9.69358447,54.8220441 15.377086,51.1462322 C18.5104566,49.1197208 21.4415976,46.2297419 23.785244,41.9730438 C26.0601978,37.8411101 26.3419537,34.4689216 25.7013656,31.742959 C24.9690177,28.6265208 21.7403524,27.7247593 19.692555,28.0689416 C16.8481543,28.5470125 15.377086,31.742959 14.137412,39.1841368 C13.3291439,44.0357889 11.3823574,49.1411961 7.98222619,52.011453 C3.95781492,55.4087025 1.07438393,55.8050564 2.27482409,55.9645193 Z" id="Path-5" stroke-width="5" transform="translate(14.000000, 42.000000) rotate(172.000000) translate(-14.000000, -42.000000) "></path>
                <g id="Group-6" transform="translate(602.000000, 104.000000) scale(-1, 1) translate(-602.000000, -104.000000) translate(401.000000, 0.000000)">
                    <path d="M363.360804,143.144799 C360.373204,144.114789 354.641315,143.144799 352.747982,140.061907 C350.27391,136.033405 349.075202,132.933718 350.672445,129.720634 C352.269687,126.507551 359.064851,125.333754 364.549725,126.657839 C371.450076,128.323629 379.601491,139.229849 378.513252,148.474599 C377.384825,158.06076 372.257254,164.4188 364.126394,166.730297 C356.523851,168.8916 348.518902,163.497687 339.946341,158.018743 C318.763404,144.480185 321.288288,144.1448 303.236308,129.720634 C274.693725,106.914107 262.04814,96.9761068 240.893567,84.4402485 C206.945117,64.3229462 178.331875,56.373801 124.746427,38.3406766 C99.5455828,29.8598298 84.096735,26.0204743 61.6398878,27.8128109 C45.0860114,29.1340168 37.8473447,32.5395193 33,38.3406766 C29.1245484,42.9787013 24.9109011,52.0426792 26,59.0467787 C27,65.4778749 31.3938877,74.8861808 38.5,79.6913 C41.8010757,81.9234716 47.3669528,86.1901439 53,84.4402485 C59.571812,82.3987276 65.8485795,76.3815066 66.2195672,68.4402485 C66.5205472,61.9975562 62.3534072,58.0740181 56.6051656,56.9402485 C53.4365923,56.3152866 51.8476931,57.7326224 51.4205771,60.0988529 C51.1757254,61.4553357 51.4555474,63.1177743 53,64.0264537" id="Path-2" stroke-width="5" stroke-linecap="round"></path>
                    <path d="M38.5,47.4275711 C35.5857477,50.0333032 34.4989854,52.9317205 35.2397129,56.1228229 C36.1905063,60.2189023 38.4163666,63.6748835 41.9172939,66.4907665" id="Path-3" stroke-width="5" stroke-linecap="round"></path>
                    <path d="M56.9362641,39.416139 L57.2206635,39.6763622" id="Path-4" stroke-width="10" stroke-linecap="round"></path>
                    <path d="M81.9362641,42.416139 L82.2206635,42.6763622" id="Path-4" stroke-width="10" stroke-linecap="round"></path>
                    <path d="M107.936264,48.416139 L108.220664,48.6763622" id="Path-4" stroke-width="10" stroke-linecap="round"></path>
                    <path d="M130.936264,55.416139 L131.220664,55.6763622" id="Path-4" stroke-width="10" stroke-linecap="round"></path>
                    <path d="M209.936264,41.416139 L210.220664,41.6763622" id="Path-4" stroke-width="10" stroke-linecap="round"></path>
                    <path d="M233.936264,54.416139 L234.220664,54.6763622" id="Path-4" stroke-width="10" stroke-linecap="round"></path>
                    <path d="M257.936264,68.416139 L258.220664,68.6763622" id="Path-4" stroke-width="10" stroke-linecap="round"></path>
                    <path d="M277.936264,84.416139 L278.220664,84.6763622" id="Path-4" stroke-width="10" stroke-linecap="round"></path>
                    <path d="M60.7860387,94.8629591 C63.4366148,95.2145277 69.918933,93.4586115 76.9156301,88.9402485 C80.7729784,86.4492303 84.3813711,82.8968249 87.2665263,77.6644279 C90.0671173,72.5853931 90.4139739,68.4402485 89.6253755,65.0894545 C88.7238157,61.258682 84.7491545,60.1502233 82.2282053,60.5732973 C78.7265946,61.1609492 76.9156301,65.0894545 75.3895246,74.2362617 C74.394503,80.1999851 71.9979037,86.4756281 67.8121587,90.0037908 C62.8578912,94.1797408 59.3082321,94.666945 60.7860387,94.8629591 Z" id="Path-5" stroke-width="5"></path>
                    <path d="M351.492393,129.37689 C355.350022,129.887624 364.784339,127.336756 374.967279,120.772806 C380.581235,117.154036 385.832862,111.993359 390.031895,104.392112 C394.107854,97.0136594 394.612667,90.9918942 393.464947,86.1241038 C392.152823,80.5590357 386.368131,78.9487473 382.699161,79.5633585 C377.602943,80.4170565 374.967279,86.1241038 372.746197,99.4119214 C371.29805,108.075586 367.810057,117.192384 361.718155,122.317843 C354.507752,128.38436 349.341605,129.092135 351.492393,129.37689 Z" id="Path-5" stroke-width="5" transform="translate(372.500000, 104.440249) rotate(-76.000000) translate(-372.500000, -104.440249) "></path>
                    <path d="M339.492393,205.37689 C343.350022,205.887624 352.784339,203.336756 362.967279,196.772806 C368.581235,193.154036 373.832862,187.993359 378.031895,180.392112 C382.107854,173.013659 382.612667,166.991894 381.464947,162.124104 C380.152823,156.559036 374.368131,154.948747 370.699161,155.563359 C365.602943,156.417056 362.967279,162.124104 360.746197,175.411921 C359.29805,184.075586 355.810057,193.192384 349.718155,198.317843 C342.507752,204.38436 337.341605,205.092135 339.492393,205.37689 Z" id="Path-5" stroke-width="5" transform="translate(360.500000, 180.440249) scale(1, -1) rotate(-103.000000) translate(-360.500000, -180.440249) "></path>
                    <path d="M245.641256,177.357883 C250.665145,178.021836 262.951697,174.705708 276.213201,166.172573 C283.524399,161.468172 290.363728,154.759292 295.832236,144.877672 C301.140462,135.285683 301.797892,127.457388 300.303186,121.12926 C298.594375,113.894672 291.060822,111.801297 286.282628,112.600291 C279.645693,113.710099 276.213201,121.12926 273.320628,138.403423 C271.434669,149.666187 266.892167,161.518025 258.958528,168.181122 C249.568235,176.067594 242.840229,176.987701 245.641256,177.357883 Z" id="Path-5" stroke-width="5" transform="translate(273.000000, 144.940249) scale(1, -1) rotate(-141.000000) translate(-273.000000, -144.940249) "></path>
                    <path d="M201.435138,116.384493 C204.844205,116.833939 213.181509,114.589175 222.180386,108.812899 C227.141556,105.628381 231.782529,101.086986 235.493303,94.3978888 C239.095313,87.9048501 239.541427,82.6056967 238.527162,78.3220412 C237.367611,73.4247813 232.255558,72.0077274 229.013212,72.5485853 C224.509578,73.2998395 222.180386,78.3220412 220.217569,90.0153206 C218.937811,97.6393454 215.855399,105.662128 210.471858,110.172532 C204.099874,115.511067 199.534441,116.133909 201.435138,116.384493 Z" id="Path-5" stroke-width="5" transform="translate(220.000000, 94.440249) rotate(-141.000000) translate(-220.000000, -94.440249) "></path>
                    <path d="M148.435138,92.3844931 C151.844205,92.8339385 160.181509,90.5891749 169.180386,84.8128992 C174.141556,81.6283812 178.782529,77.0869857 182.493303,70.3978888 C186.095313,63.9048501 186.541427,58.6056967 185.527162,54.3220412 C184.367611,49.4247813 179.255558,48.0077274 176.013212,48.5485853 C171.509578,49.2998395 169.180386,54.3220412 167.217569,66.0153206 C165.937811,73.6393454 162.855399,81.6621281 157.471858,86.1725318 C151.099874,91.5110668 146.534441,92.1339086 148.435138,92.3844931 Z" id="Path-5" stroke-width="5" transform="translate(167.000000, 70.440249) rotate(-146.000000) translate(-167.000000, -70.440249) "></path>
                    <path d="M147.137755,57.9303058 C151.354233,58.4921125 161.666161,55.686158 172.796351,48.4658133 C178.932535,44.4851659 184.672687,38.8084215 189.262327,30.4470504 C193.717445,22.330752 194.269217,15.7068102 193.014732,10.3522409 C191.580551,4.23066594 185.257748,2.45934867 181.247478,3.13542099 C175.677194,4.07448877 172.796351,10.3522409 170.368657,24.9688401 C168.785798,34.4988711 164.973341,44.5273495 158.314751,50.1653541 C150.433612,56.8385228 144.786893,57.6170752 147.137755,57.9303058 Z" id="Path-5" stroke-width="5" transform="translate(170.099558, 30.500000) scale(1, -1) rotate(-186.000000) translate(-170.099558, -30.500000) "></path>
                    <path d="M280.698511,124.35028 C286.170961,125.075521 299.554527,121.453289 314.000094,112.13248 C321.964077,106.993826 329.414061,99.6656654 335.370828,88.8718954 C341.153003,78.394492 341.869132,69.8435854 340.240971,62.9313231 C338.379587,55.0289264 330.173396,52.7423168 324.968577,53.6150647 C317.739059,54.8273158 314.000094,62.9313231 310.849256,81.800024 C308.794908,94.1024275 303.846825,107.048281 295.204825,114.326433 C284.976113,122.940887 277.647392,123.945927 280.698511,124.35028 Z" id="Path-5" stroke-width="5" transform="translate(310.500000, 88.940249) rotate(-66.000000) translate(-310.500000, -88.940249) "></path>
                    <path d="M10.3383233,103.814654 C12.9888994,104.166223 19.4712176,102.410307 26.4679147,97.8919438 C30.325263,95.4009256 33.9336557,91.8485202 36.8188109,86.6161232 C39.6194019,81.5370884 39.9662585,77.3919438 39.1776601,74.0411497 C38.2761003,70.2103773 34.301439,69.1019185 31.7804899,69.5249926 C28.2788792,70.1126444 26.4679147,74.0411497 24.9418092,83.1879569 C23.9467875,89.1516803 21.5501883,95.4273233 17.3644433,98.9554861 C12.4101758,103.131436 8.86051667,103.61864 10.3383233,103.814654 Z" id="Path-5" stroke-width="5" transform="translate(24.772648, 86.649258) rotate(111.000000) translate(-24.772648, -86.649258) "></path>
                    <path d="M2.27482409,56.4047678 C4.42791911,56.6907785 9.69358447,55.2622926 15.377086,51.5864808 C18.5104566,49.5599693 21.4415976,46.6699904 23.785244,42.4132923 C26.0601978,38.2813586 26.3419537,34.9091701 25.7013656,32.1832075 C24.9690177,29.0667693 21.7403524,28.1650078 19.692555,28.5091901 C16.8481543,28.987261 15.377086,32.1832075 14.137412,39.6243853 C13.3291439,44.4760374 11.3823574,49.5814446 7.98222619,52.4517015 C3.95781492,55.848951 1.07438393,56.245305 2.27482409,56.4047678 Z" id="Path-5" stroke-width="5" transform="translate(14.000000, 42.440249) rotate(172.000000) translate(-14.000000, -42.440249) "></path>
                </g>
            </g>
        </g>
    </g>
</svg>
